<svg width="799" height="207" viewBox="0 0 799 207" fill="none" xmlns="http://www.w3.org/2000/svg">
<path d="M381.653 153.359C372.501 142.617 374.61 128.824 386.778 119.099C391.815 115.075 397.668 112.631 404.086 111.908C410.33 111.204 415.734 114.414 416.887 119.151C417.827 123.011 412.74 132.942 409.053 134.49C408.242 134.831 407.45 135.053 406.766 134.347C405.978 133.534 406.059 132.547 406.382 131.547C407.148 129.174 408.015 126.826 408.623 124.413C408.941 123.148 408.97 121.672 407.638 120.794C406.321 119.927 404.996 120.416 403.938 121.281C398.132 126.023 393.375 131.563 392.234 139.257C391.282 145.681 395.392 148.737 401.396 146.188C405.905 144.273 409.466 140.898 413.028 137.654C418.569 132.608 423.432 126.916 428.372 121.282C430.952 118.34 430.445 116.493 428.618 113.507C419.105 97.9566 417.616 81.5608 425.13 64.8628C429.78 54.5315 442.242 50.9431 452.309 56.2492C457.535 59.0039 461.461 63.2854 465.762 67.8018C470.033 63.7764 472.567 58.8622 475.812 54.5288C487.387 39.0691 498.918 23.5973 512.946 10.1725C519.19 4.19733 526.352 1.08826 534.974 1.34427C538.157 1.43878 540.136 2.78742 538.161 6.01004C528.576 21.6484 525.646 39.5588 520.682 56.7569C516.019 72.9106 512.475 89.3523 509.905 105.963C508.431 115.493 507.574 125.127 508.897 134.817C509.33 137.99 510.413 138.852 513.798 138.356C529.606 136.04 539.475 126.049 547.326 113.244C548.806 110.831 550.295 108.422 551.809 106.029C553.568 103.248 556.139 102.456 559.172 103.375C562.111 104.265 561.881 106.583 561.679 109.077C561.342 113.234 562.747 116.989 565.375 120.19C572.037 128.302 571.859 136.842 567.199 145.74C566.993 146.133 567.005 146.639 566.824 147.561C571.682 147.033 575.524 145.059 578.965 142.09C586.911 135.234 592.864 126.934 597.306 117.444C604.508 102.058 611.224 86.4671 617.523 70.693C618.313 68.7137 619.765 66.3206 616.873 65.0887C606.858 60.8229 597.535 54.1917 585.852 55.2806C574.84 56.307 565.743 61.0297 558.65 69.6787C566.14 67.0823 573.444 64.3076 581.943 67.8742C578.869 71.4505 575.083 70.2906 571.939 70.951C569.344 71.4958 566.759 71.8059 564.224 72.7855C559.466 74.6232 558.174 78.5595 557.251 82.9236C556.953 84.3347 556.76 86.2046 554.831 86.2425C552.622 86.2858 552.434 84.3158 552.079 82.6975C549.365 70.3056 557.047 63.2072 565.392 56.3696C576.058 47.6307 587.897 46.3116 600.63 50.6175C606.307 52.5371 611.973 54.525 617.511 56.8037C621.252 58.3428 623.125 57.1624 624.223 53.5653C628.843 38.4367 633.04 23.191 635.563 7.56616C636.326 2.84537 638.241 0.847201 643.015 0.995547C649.507 1.19715 656.011 0.986117 662.509 1.01053C664.627 1.0185 667.166 0.488405 668.352 2.81223C669.452 4.96903 667.46 6.50333 666.382 8.09635C656.776 22.3018 646.825 36.2973 639.742 52.0291C638.598 54.5704 637.653 57.2013 636.525 60.0168C640.625 61.66 643.75 60.0507 646.826 58.5533C652.872 55.6103 657.974 51.3201 663.064 47.0071C681.111 31.7177 699.004 30.1881 719.099 42.5955C730.233 49.4695 739.85 58.172 747.72 68.7035C748.681 69.9904 750.338 71.2137 749.126 73.0548C748.003 74.7608 746.24 74.1544 744.573 73.8514C736.384 72.3623 729.836 68.6739 724.745 61.7066C711.209 43.1812 686.43 39.818 668.113 53.6058C662.93 57.5069 657.879 61.5938 652.573 65.3174C647.958 68.5561 642.698 70.2276 636.999 69.4925C633.984 69.1036 632.174 70.1752 631.18 72.8764C626.355 85.9838 619.785 98.4771 616.893 112.259C615.249 120.091 614.501 128.076 615.17 136.095C615.54 140.53 616.55 144.951 621.594 146.35C626.652 147.753 631.168 146.554 634.579 142.262C637.929 138.047 640.605 133.502 641.936 128.213C644.422 118.335 650.047 110.453 657.619 103.822C662.736 99.3408 668.651 98.0822 674.827 100.583C680.66 102.944 682.98 108.137 683.325 114.209C683.775 122.13 683.228 129.855 678.938 136.897C678.028 138.393 676.899 139.977 677.302 142.294C681.903 143.473 685.382 141.292 688.141 138.118C695.752 129.364 699.905 118.824 702.309 107.686C703.291 103.136 705.128 101.516 709.639 101.723C716.125 102.02 722.633 101.811 729.131 101.864C736.177 101.921 736.556 102.829 733.316 108.888C728.302 118.266 722.418 127.239 719.111 137.45C717.798 141.504 717.037 145.923 721.102 148.892C724.854 151.633 729.211 151.727 733.417 149.615C735.242 148.698 736.886 147.356 736.713 145.021C735.596 129.92 745.574 120.572 754.557 110.788C757.818 107.237 761.609 104.077 766.095 102.153C769.785 100.571 773.934 99.2639 777.419 102.347C781.106 105.608 780.398 109.746 778.642 113.862C774.276 124.097 765.576 129.963 756.777 135.751C755.399 136.657 753.758 137.386 752.774 138.623C749.837 142.313 751.549 146.791 756.185 147.826C766.118 150.043 774.417 147.676 781.358 139.801C787.441 132.9 792.164 125.488 794.071 116.416C794.344 115.118 794.744 113.528 796.448 113.718C798.205 113.915 798.208 115.471 797.976 116.848C795.463 131.774 789.909 145.056 777.022 154.081C767.18 160.972 756.523 161.313 745.744 156.671C741.935 155.03 739.15 154.361 735.419 157.333C730.181 161.504 718.007 160.753 712.616 156.836C707.948 153.443 705.23 144.199 707.541 137.093C710.31 128.577 713.722 120.269 716.852 111.881C710.822 109.249 709.08 109.994 707.421 116.033C705.289 123.796 702.305 131.166 697.795 137.868C692.23 146.137 685.252 151.723 674.499 149.781C672.141 149.355 670.75 150.471 669.368 152.058C666.484 155.371 663.011 157.928 658.906 159.511C652.003 162.175 646.315 159.94 643.076 153.355C642.358 151.895 641.784 150.365 641.036 148.618C638.388 149.597 637.09 151.847 635.356 153.518C626.06 162.482 614.628 160.891 608.317 149.702C603.69 141.498 602.691 134.441 604.44 120.962C601.134 124.512 599.688 128.522 597.588 132.076C593.911 138.298 589.542 143.918 584.127 148.695C580.97 151.48 577.305 154.613 573.293 154.491C561.402 154.128 550.156 159.108 538.3 158.148C532.804 157.703 527.281 157.026 523.167 152.694C521.537 150.977 519.622 148.769 521.601 146.608C523.813 144.192 525.204 146.95 526.748 148.33C536.291 156.86 554.4 149.845 557.671 136.44C558.817 131.745 558.764 127.249 556.592 122.833C555.18 119.96 554.933 116.77 554.447 113.139C550.9 115.702 549.254 119.396 547.277 122.593C539.851 134.601 528.696 140.992 515.465 144.087C510.623 145.22 509.754 147.235 510.911 151.729C513.056 160.059 512.649 160.34 503.816 160.329C496.984 160.32 490.146 160.187 483.322 160.417C478.867 160.566 477.485 158.731 477.743 154.435C478.259 145.839 478.13 145.713 469.87 143.927C457.876 141.334 447.037 136.716 438.882 127.11C436.382 124.165 434.691 125.831 432.949 128.022C426.21 136.497 419.225 144.766 411.496 152.364C402.53 161.179 391.778 161.597 381.653 153.359ZM480.861 112.476C477.383 102.092 472.219 92.578 466.827 83.3684C463.949 84.0728 463.138 85.7992 462.11 87.264C455.71 96.376 449.511 105.637 442.852 114.554C440.264 118.019 440.719 120.195 443.577 122.99C452.606 131.819 463.592 136.435 475.819 138.558C477.329 138.82 479.293 139.134 479.517 137.191C480.438 129.227 483.81 121.404 480.861 112.476ZM509.539 41.0749C514.769 31.4104 519.998 21.746 525.63 11.3375C519.727 13.514 515.832 16.8427 512.18 20.4982C497.371 35.3243 486.72 53.3144 474.429 70.0606C471.733 73.7336 471.167 76.9101 473.895 80.924C475.822 83.7579 476.741 87.2713 478.15 90.4633C480.168 95.0338 482.223 99.5878 484.263 104.149C490.578 82.1094 498.526 61.3885 509.539 41.0749ZM439.778 64.0301C435.298 65.6419 433.867 69.6063 432.578 73.578C429.122 84.2264 430.016 94.88 432.926 105.457C433.452 107.371 433.512 109.894 436.206 110.441C436.595 110.248 437.005 110.181 437.17 109.944C444.637 99.1953 452.102 88.4444 459.508 77.6534C460.368 76.3999 460.779 74.8865 459.714 73.4574C455.672 68.0341 448.632 61.4956 439.778 64.0301ZM673.077 132.971C676.051 126.646 677.669 120.087 675.908 113.129C674.434 107.302 671.443 106.38 666.574 109.749C660.376 114.038 657.016 120.315 654.335 126.996C651.985 132.851 649.68 138.837 650.507 145.349C650.838 147.948 651.291 150.843 655.066 150.765C661.327 150.635 665.955 145.096 665.343 139.02C664.497 130.63 665.287 122.387 669.377 114.8C670.178 113.312 671.331 111.125 673.551 112.375C675.42 113.427 674.338 115.325 673.761 116.855C671.853 121.908 671.181 127.155 671.258 132.522C671.268 133.207 671.305 133.207 673.077 132.971ZM758.789 119.314C756.941 121.841 755.633 124.612 754.579 127.794C764.48 125.334 772.153 117.068 772.694 108.353C766.893 110.288 762.65 113.97 758.789 119.314Z" fill="#024705"/>
<path d="M261.793 154.775C253.702 168.792 245.919 182.564 237.868 196.177C232.937 204.515 221.797 208.456 212.553 205.577C205.921 203.512 201.492 196.565 202.996 190.584C204.747 183.618 213.09 177.737 219.604 178.871C222.357 179.351 224.316 180.811 224.553 183.685C224.792 186.573 223.39 189.466 220.984 190.366C215.994 192.233 219.339 187.157 217.837 185.924C217.676 185.905 217.458 185.809 217.358 185.879C214.366 187.997 211.425 191.038 212.755 194.458C214.33 198.505 218.832 196.904 222.119 196.386C226.777 195.653 229.687 192.222 231.76 188.336C242.021 169.095 252.147 149.782 262.294 130.48C262.814 129.489 263.081 128.365 263.142 126.857C258.779 129.643 254.153 131.614 249.45 133.426C243.843 135.586 238.168 136.789 232.574 133.701C229.279 131.882 228.297 134.466 227.228 136.276C221.729 145.593 216.371 154.995 211.029 164.404C205.194 174.682 199.96 185.299 193.501 195.225C188.143 203.458 180.392 206.648 170.862 206.154C163.388 205.767 156.812 199.578 156.876 193.061C156.943 186.356 164.841 178.867 171.863 178.797C174.739 178.768 177.226 179.537 178.518 182.286C179.764 184.939 178.128 187.117 176.847 189.235C176.136 190.413 175.038 191.364 173.521 190.673C172.208 190.075 172.269 188.847 172.618 187.65C172.842 186.884 173.11 186.13 173.601 184.629C169.564 186.466 167.777 189.257 166.875 192.601C166.072 195.577 168.324 196.318 170.577 196.734C176.49 197.825 182.182 195.214 185.61 189.142C190.68 180.162 195.452 171.008 200.155 161.828C202.619 157.019 205.621 152.427 207.473 146.186C201.123 150.857 196.722 156.655 189.827 158.707C182.108 161.005 177.228 159.263 172.2 152.682C170.631 152.092 169.745 153.33 168.676 154.028C165.029 156.408 161.227 158.449 156.962 159.496C145.896 162.212 137.655 154.652 139.352 143.344C141.978 125.85 151.831 113.632 167.776 106.869C177.254 102.848 187.07 104.087 191.059 117.045C194.225 114.059 195.302 110.182 196.864 106.735C198.569 102.972 201.098 101.536 205.097 101.769C208.751 101.981 212.427 101.806 216.093 101.793C217.765 101.787 219.618 101.571 220.284 103.608C220.864 105.38 219.381 106.308 218.295 107.308C210.082 114.87 201.968 122.525 194.748 131.075C191.196 135.281 187.823 139.597 185.243 144.489C184.394 146.099 183.269 147.627 184.348 149.902C187.544 150.744 190.292 149.529 192.875 147.563C202.693 140.092 212.316 132.356 221.052 123.65C227.854 116.871 230.128 107.459 233.697 98.9234C242.364 78.1928 250.495 57.2383 259.014 36.4444C262.229 28.5956 267.251 22.0276 274.344 17.1441C276.73 15.5018 279.266 14.3316 282.069 13.7805C289.931 12.2349 296.891 17.6032 296.117 25.5126C294.199 45.1257 287.443 62.7138 272.559 76.4165C266.07 82.3908 259.626 88.4212 252.964 94.1989C245.908 100.318 241.622 108.085 238.931 116.811C236.958 123.212 240.292 127.248 246.544 125.405C258.801 121.791 269.325 115.94 274.567 102.958C282.546 83.1962 290.04 63.2476 297.995 43.4825C302.314 32.7531 307.939 22.7603 318.208 16.253C323.763 12.7335 329.288 12.6209 334.643 16.0563C339.436 19.131 339.038 23.9971 338.454 29.0398C335.604 53.6228 322.699 72.1298 303.681 86.883C294.481 94.0196 287.662 102.754 283.683 113.687C283.115 115.245 282.539 116.844 282.309 118.473C281.588 123.588 283.92 126.193 289.078 125.702C294.873 125.15 299.981 123.092 303.816 118.308C308.305 112.706 313.31 107.579 319.409 103.662C320.666 102.855 321.933 101.915 323.333 101.509C327.05 100.43 331.064 99.4665 334.188 102.536C337.313 105.608 336.732 109.601 335.306 113.314C331.498 123.229 323.008 128.758 314.953 134.657C313.749 135.539 312.383 136.199 311.099 136.973C308.784 138.369 307.178 140.31 307.818 143.113C308.424 145.766 310.375 147.438 313.104 147.78C322.446 148.949 330.828 147.787 337.507 139.866C342.85 133.53 347.554 127.061 349.805 118.985C350.264 117.34 350.592 115.325 353.141 114.769C355.203 118.754 353.576 122.481 352.4 126.176C348.223 139.296 341.487 150.515 328.547 156.726C320.651 160.515 312.277 160.338 304.171 157.747C295.953 155.121 292.444 148.881 293.328 140.291C293.528 138.341 294.122 136.379 293.146 134.08C287.309 135.514 281.481 136.338 275.661 133.712C274.038 132.98 273.18 135.02 272.45 136.276C268.933 142.321 265.47 148.397 261.793 154.775ZM183.082 116.761C178.964 111.717 175.486 116.063 172.363 117.913C162.308 123.87 156.008 133.22 150.713 143.343C149.778 145.132 148.569 146.948 149.892 148.905C151.289 150.973 153.559 150.795 155.768 150.637C163.303 150.1 168.886 145.928 173.325 140.41C178.691 133.739 184.327 126.964 183.082 116.761ZM318.657 38.1335C310.505 52.2333 304.399 67.3303 297.276 82.0104C301.268 78.2644 305.014 74.3636 308.48 70.2293C316.999 60.0695 324.377 49.2496 327.093 35.9291C327.536 33.754 328.352 31.4827 326.311 29.2893C322.758 31.2406 321.048 34.514 318.657 38.1335ZM283.369 40.8535C284.185 37.1392 285.896 33.4363 283.306 28.4772C270.195 44.4164 264.242 63.1384 255.729 80.5592C257.937 79.1992 259.667 77.5185 261.23 75.6954C270.099 65.3524 279.076 55.0703 283.369 40.8535ZM320.5 123.043C324.621 119.046 328.883 115.13 328.953 108.539C320.401 111.464 313.131 119.553 311.903 127.967C314.87 126.321 317.411 124.912 320.5 123.043Z" fill="#024705"/>
<path d="M148.272 55.355C131.351 63.0211 114.004 68.2831 96.4866 73.0382C86.5279 75.7415 76.5781 78.485 66.4097 80.335C64.7834 80.6309 63.1093 81.0401 62.2298 82.7214C56.4547 93.7625 49.853 104.396 47.8654 117.099C46.7822 124.022 47.432 130.771 48.5953 137.461C49.7325 144.001 54.9755 147.722 60.8345 148.493C90.8645 152.443 117.01 145.189 136.497 120.412C140.175 115.735 142.293 110.307 143.49 104.545C145.03 97.1348 140.754 91.5194 133.116 91.3977C123.001 91.2364 113.728 94.5456 105.353 99.9731C94.8737 106.763 84.5253 113.804 77.1527 124.265C76.337 125.422 75.4508 126.829 73.5611 126.592C72.03 125.586 72.5033 124.356 73.3033 123.19C87.1019 103.083 104.751 88.4181 129.489 84.153C135.999 83.0308 142.148 84.4823 146.865 89.6128C150.466 93.5302 151.752 98.0118 150.728 103.424C148.45 115.472 141.888 125.054 134.503 134.477C119.934 153.067 99.6685 158.505 77.6356 160.082C71.336 160.533 64.9453 160.561 58.6511 160.074C40.7394 158.689 27.1172 144.441 25.7464 126.249C24.8734 114.664 27.1707 103.729 32.0544 93.2606C32.757 91.7546 33.3489 90.1933 33.9146 88.6296C34.0679 88.2056 33.9378 87.679 33.9378 87.2706C30.4046 87.2706 26.9781 87.3127 23.5529 87.2634C8.16638 87.0416 -2.98979 71.4711 2.07042 56.7972C7.70634 40.4539 18.8569 28.1786 32.6025 18.2697C42.0734 11.4422 52.6371 6.36355 63.1365 1.2785C64.6379 0.551295 66.3143 -0.918309 68.26 1.24813C67.38 4.46749 64.2724 5.38497 61.8879 6.86538C53.546 12.0443 44.6316 16.287 36.7915 22.2922C25.5224 30.9239 17.2657 41.691 12.9267 55.3486C10.3673 63.4047 12.3596 72.0601 18.1274 75.0232C25.1457 78.6288 32.6331 78.1445 40.0851 76.5066C41.6384 76.1652 42.4028 74.7154 43.2593 73.4719C62.2491 45.9021 87.7997 26.383 118.6 14.04C133.639 8.01321 148.998 1.81036 165.845 2.81222C175.351 3.37744 181.328 10.236 180.073 19.548C179.339 24.9922 177.396 30.1947 174.07 34.7273C167.404 43.8114 158.514 50.1345 148.272 55.355ZM159.747 38.25C164.977 33.8254 170.085 29.292 172.825 22.7699C175.942 15.3497 172.004 9.26855 164.066 9.02123C158.423 8.84545 153.244 10.8512 147.993 12.3318C122.395 19.5492 99.1171 30.7831 81.9956 52.0504C76.9733 58.2888 71.9484 64.6202 68.3522 72.7276C70.5026 72.602 71.8288 72.7031 73.07 72.4249C88.4791 68.9705 103.877 65.4166 118.669 59.7892C132.983 54.3442 147.322 48.867 159.747 38.25Z" fill="#024705"/>
<path d="M713.003 70.9294C711.827 69.0942 710.559 67.6431 710.013 65.9582C707.843 59.2585 705.502 52.7484 698.449 49.6505C699.75 46.973 701.557 47.5931 702.997 48.125C707.425 49.7604 711.609 51.9782 713.728 56.4605C717.293 63.9996 722.685 69.4896 730.419 72.7062C731.862 73.3063 733.661 73.7741 733.93 75.8135C729.184 79.4027 719.338 77.2008 713.003 70.9294Z" fill="#024705"/>
<path d="M707.315 76.04C702.144 74.2805 699.29 70.6515 697.565 66.1618C695.531 60.8673 693.915 55.4181 688.868 51.9677C688.027 51.3927 687.827 50.2832 688.869 48.917C693.794 49.2279 697.494 52.0662 699.258 56.4754C701.902 63.0841 706.051 68.1858 711.673 72.3317C712.815 73.1737 714.071 74.2253 713.675 76.1043C711.711 78.2609 709.676 76.1746 707.315 76.04Z" fill="#024705"/>
<path d="M343.03 86.9478C339.143 83.6455 337.637 79.4942 336.858 75.0178C336.507 72.9964 337.171 71.3403 339.435 70.9509C341.472 70.6006 344.278 70.6742 344.476 72.8426C345.036 78.9952 347.379 84.3976 350.919 89.744C347.018 91.0391 345.35 88.6018 343.03 86.9478Z" fill="#024705"/>
<path d="M719.793 38.4548C727.901 40.0285 735.832 40.802 744.33 41.3955C742.158 46.8125 738.419 47.003 734.887 47.0651C728.767 47.1727 723.984 43.687 719.151 40.5364C718.397 40.0446 718.561 39.0768 719.793 38.4548Z" fill="#024705"/>
</svg>
